<svg xmlns="http://www.w3.org/2000/svg" viewBox="0 0 400.19 400.19"><defs><style>.cls-1{fill:#fefefe;}.cls-2{fill:#a38a74;}.cls-3{fill:#c0af9f;}.cls-4{fill:#c3b3a4;}.cls-5{fill:#a9917c;}.cls-6{fill:#d4c9bf;}.cls-7{fill:#b8a593;}.cls-8{fill:#d0c3b7;}.cls-9{fill:#c1b0a1;}.cls-10{fill:#c5b6a8;}.cls-11{fill:#010101;}.cls-12{fill:#a68c75;}.cls-13{fill:#a38a73;}.cls-14{fill:#a99078;}.cls-15{fill:#a48b74;}.cls-16{fill:#bdab9b;}.cls-17{fill:#af947b;}.cls-18{fill:#bdab9a;}.cls-19{fill:#ae937b;}.cls-20{fill:#ab9179;}.cls-21{fill:#b1b0a4;}.cls-22{fill:#919087;}.cls-23{fill:#a28f7b;}.cls-24{fill:#bcbbae;}.cls-25{fill:#b8b7ab;}.cls-26{fill:#b9b8ab;}.cls-27{fill:#b5b4a8;}.cls-28{fill:#a00909;}.cls-29{fill:#adaca0;}.cls-30{fill:#acab9f;}.cls-31{fill:#432523;}.cls-32{fill:#a50a0a;}.cls-33{fill:#b3b2a6;}.cls-34{fill:#7c7b73;}.cls-35{fill:#8e877d;}.cls-36{fill:#9d8b78;}.cls-37{fill:#b0afa3;}.cls-38{fill:#020202;}.cls-39{fill:#b8a6a6;}.cls-40{fill:#b6b5a8;}.cls-41{fill:#bab9ad;}.cls-42{fill:#bbbaae;}.cls-43{fill:#070605;}.cls-44{fill:#ecb1ca;}.cls-45{fill:#a70a0a;}.cls-46{fill:#ebb2cb;}.cls-47{fill:#b40c0c;}.cls-48{fill:#c5b2b1;}.cls-49{fill:#e70304;}.cls-50{fill:#ad0c0b;}.cls-51{fill:#f7bad4;}.cls-52{fill:#e7aec7;}.cls-53{fill:#d7aec6;}.cls-54{fill:#f3b7d0;}.cls-55{fill:#b0aaa0;}.cls-56{fill:#a09d94;}.cls-57{fill:#ecd3ea;}.cls-58{fill:#f9bcd7;}</style></defs><title>Fichier 1</title><g id="Calque_2" data-name="Calque 2"><g id="Calque_1-2" data-name="Calque 1"><path class="cls-1" d="M201,401q-98,0-196,.1c-3.42,0-4.1-.68-4.1-4.1Q1.08,201,.9,5C.9,1.58,1.58.9,5,.9q196,.18,392,0c3.42,0,4.1.68,4.1,4.1q-.18,196,0,392c0,3.42-.68,4.1-4.1,4.1Q299,400.91,201,401Z" transform="translate(-0.9 -0.9)"/><path class="cls-2" d="M242.85,355.13c-13.3-2.2-26.18-6.13-39-10-23.51-7.14-47.77-12-70.52-21.35-12.17-5-23.4-2.06-34.93.3-7.8,1.6-15.47,3.82-23.36,5a14.67,14.67,0,0,0-7.26-.61,12.68,12.68,0,0,1-5.81-.32,47.4,47.4,0,0,1-16-5c-3-1.2-6-2.49-7.28-5.86a6.62,6.62,0,0,1-.76-1.82,3.61,3.61,0,0,0-2.39-2.72c-2.2-1.37-2.85-3.94-4.51-5.73l-3.11-2.93c0-1.19-1.1-1.52-1.79-2.16A1.64,1.64,0,0,1,26,301c.23-1.76-1.43-2.62-1.94-4-4.7-11-4.66-22,.9-32.52,2.69-5.09,7.85-8.05,13-10.56A174.63,174.63,0,0,1,78.4,240c3.09-.65,6.11-1.6,9.17-2.4,2.73-.72,3.86-2.44,4.44-5.27,6.12-29.8,16.87-57.69,34.54-82.68,8.94-12.65,21.6-21.07,34-29.7,2.41-1.68,3.53-3.09,3.24-5.91-.92-8.9.52-17.67,3-26.08,4.35-14.83,15.42-22.15,30.06-25,13.24-2.6,26.52-1.54,39.78-.66a171.76,171.76,0,0,1,58.79,14.59c15.66,7,26.31,18.3,30.62,35.15a18.44,18.44,0,0,1,.09,9.75c.12,1.55-.11,3-2,3.13-.64,0-.86-.88-.91-1.56-.17,2.13,3.89,3,1.83,5.71l0,0c-1.21,2.61-1.49,5.45-2,8.23-3.76,8.74-.28,15.4,5.42,22.09,5,5.83,6.5,13.26,6.49,21,0,13-3.69,25.24-7.77,37.38-9.44,28-18.58,56.15-28.47,84-4.71,13.25-12.83,25.11-17,38.68-1.42,4.67-5.67,7.37-8.06,11.46-1.85,3.17-6.45,1.86-9.6,3.26C257.05,355.37,250,356.09,242.85,355.13Z" transform="translate(-0.9 -0.9)"/><path class="cls-3" d="M242.85,355.13c7.1-.57,14.2-2.28,21.3,0A28.1,28.1,0,0,1,242.85,355.13Z" transform="translate(-0.9 -0.9)"/><path class="cls-4" d="M39,317c2.81,1.47,4,4.81,6.93,6.12a15.31,15.31,0,0,1-10-5.09l.44-.52A3.67,3.67,0,0,1,39,317Z" transform="translate(-0.9 -0.9)"/><path class="cls-5" d="M325.06,129.07c.3-3.12-4.91-4.83-2.19-8.6,2.05.54.43,2.68,1.83,3.83l1.43-2.51A9.9,9.9,0,0,1,325.06,129.07Z" transform="translate(-0.9 -0.9)"/><path class="cls-6" d="M68.08,327.2c2.45.1,5.36-1.54,6.93,1.84-1.77,1.71-4,.82-6,1C68.25,329.24,67.43,328.46,68.08,327.2Z" transform="translate(-0.9 -0.9)"/><path class="cls-7" d="M31,307c2.7.66,2.89,3.81,5,5a1.53,1.53,0,0,1,.23,1.93c-1.41.85-2.13-.4-3.06-1Z" transform="translate(-0.9 -0.9)"/><path class="cls-8" d="M68.08,327.2,69,330a11.56,11.56,0,0,1-7.07-1.93Z" transform="translate(-0.9 -0.9)"/><path class="cls-9" d="M24,297c1.6-.64,1.57,3.21,3.66,1.34,0,0,.9.58.85.74-.35,1.25-1.59,1.44-2.57,1.94C24.24,300.19,24,298.65,24,297Z" transform="translate(-0.9 -0.9)"/><path class="cls-10" d="M33.18,313,36,314a1.91,1.91,0,0,1,1.49,1.18c.37,1.33-.37,2.1-1.38,2.72l-.18.11C34.44,316.66,33.85,314.79,33.18,313Z" transform="translate(-0.9 -0.9)"/><path class="cls-5" d="M323.1,137.25c-.27-3-.17-5.85,2-8.23A23.65,23.65,0,0,1,323.1,137.25Z" transform="translate(-0.9 -0.9)"/><path class="cls-8" d="M26.09,301.91c.89.3,1.95-1,2.6,0,.24.38-.51,1.39-.81,2.12A2.81,2.81,0,0,1,26.09,301.91Z" transform="translate(-0.9 -0.9)"/><path d="M205.07,336c-8.94-2.56-18-4.88-26.8-7.75a239.4,239.4,0,0,1-54.7-25.37,60.64,60.64,0,0,1-15.4-13.6c-4.55-5.68-4.51-10.38-2.85-15.77,11.61-37.71,20-76.37,33.63-113.48,3.18-8.64,7.23-17,12.93-24.05,6.54-8.16,16.45-11.25,26.21-13.78,2.58-.67,3.42-1.48,4-3.92,2.62-11.37,5.79-22.7,10.43-33.32,3.22-7.35,10.17-11.75,18.57-13,16-2.37,31.55,0,47,3.6,9.91,2.34,19.6,5.37,28.57,10.34,4.12,2.29,8,4.92,10,9.42.64,1.45,1.54,1.8,3,2,8.62,1.52,14.47,8.15,16.22,16.7a24.28,24.28,0,0,1-1.67,15c-3.24,7.58-4.39,16-10.07,22.63-2.9,3.39-1.24,8.61,2.44,11.24,5,3.59,6.66,8.86,7.46,14.66,1.17,8.49,0,17,0,25.43.49.63.59,1.23-.16,1.75-4.46,30.26-17.43,57.83-27.14,86.44-3.85,11.33-7,22.89-10.72,34.29-1.58,4.9-2.46,10.78-9.79,10.41-7.82,8.3-18.06,3.85-27.21,5.17a.6.6,0,0,1-1-.06L210,337A4.92,4.92,0,0,1,205.07,336Z" transform="translate(-0.9 -0.9)"/><path class="cls-11" d="M68.72,293.14c4.67,1.25,9.5,1.17,14.26,1.59,2.69.24,5.08.53,4.7,4.18a3.59,3.59,0,0,0,.57,1.81c3.53,6.89,2,11.07-5.49,13.35-7.7,2.36-15.47.62-23.16-.44a32.23,32.23,0,0,1-10.93-3.17c-4.23-2.26-8.28-4.68-8.08-10.26.18-5.29,5-5.46,8.41-7.16,6-2,12.12-1.52,18.26-1A3,3,0,0,1,68.72,293.14Z" transform="translate(-0.9 -0.9)"/><path class="cls-11" d="M74,262.1c3.63-.41,7.25-1.06,10.89-1.18,3.29-.12,6,.79,3.5,5-.51.87-.89,1.15.18,2.24,4.49,4.57,4,9.35-1,13.48-4.61,3.8-10.33,5.2-15.72,7.33-1.93,2.84-4.93,2.23-7.7,2.4-1.94-.07-3.9.15-5.81-.42A4.3,4.3,0,0,1,57,290c-3-.85-6-1.56-8.53-3.64-7.34-6.06-6.1-15.09,2.88-18.28,6.06-2.15,12.42-3.45,18.65-5.12C71.25,262.13,72.5,261.4,74,262.1Z" transform="translate(-0.9 -0.9)"/><path class="cls-12" d="M57,290l1,.08a8.3,8.3,0,0,0,6,0c2.59-.67,5.41.31,7.89-1.11.67.2,2.09.32,1.12,1.24-1.22,1.16-2.29,2.8-4.26,2.95l-.39.07L68,293c-4.53-1.13-9.13-.2-13.68-.53-1.78-.12-3.62.46-5.32-.47C51.16,289.31,54.49,291.24,57,290Z" transform="translate(-0.9 -0.9)"/><path class="cls-13" d="M49,292c6.32.54,12.76-1.18,19,1l-19,0Z" transform="translate(-0.9 -0.9)"/><path class="cls-14" d="M205.07,336a8.87,8.87,0,0,1,4.93,1C208.18,339.17,206.14,338.76,205.07,336Z" transform="translate(-0.9 -0.9)"/><path class="cls-15" d="M238,341l1,.06c1.61,1.93,4.18.09,6.6,1.93-3.08,0-5.56.37-7.88-.11C235.68,342.46,238.17,341.71,238,341Z" transform="translate(-0.9 -0.9)"/><path class="cls-16" d="M37,315l-1-1c0-.67,0-1.33,0-2,2,0,2.89,1.05,2.94,3A1.36,1.36,0,0,1,37,315Z" transform="translate(-0.9 -0.9)"/><path class="cls-17" d="M74,262.1a6.6,6.6,0,0,1-4,.82C70.84,260.11,72.34,260.61,74,262.1Z" transform="translate(-0.9 -0.9)"/><path class="cls-18" d="M37,315l2,0c0,.67,0,1.34,0,2-.7,1.15-1.81,1-2.89.92C36.4,317,36.68,316,37,315Z" transform="translate(-0.9 -0.9)"/><path class="cls-19" d="M315.48,199.78c-.53-2.27-.67-3.52-.05-4.91C316.34,196.29,316.08,197.61,315.48,199.78Z" transform="translate(-0.9 -0.9)"/><path class="cls-20" d="M313.88,204.76c.06-.58.11-1.16.16-1.75,1.49,1.55,1.07,3.28.34,6C314.14,207,314,205.86,313.88,204.76Z" transform="translate(-0.9 -0.9)"/><path class="cls-20" d="M251.23,342.47c2.26-.53,3.51-.7,4.9-.05C254.71,343.35,253.39,343.08,251.23,342.47Z" transform="translate(-0.9 -0.9)"/><path class="cls-21" d="M200.74,101.88c.07-1.69.13-3.89,1.57-4.49,1.77-.75,2.52,1.67,3.7,2.68,19,16.16,41.32,24.57,65.45,29.06a93.14,93.14,0,0,0,26,1.52c-2.62,10.27-5.22,20.11-7.6,30-1.21,5,.78,8.92,5.61,10.58,4.14,1.42,5.59,4.13,5.87,8.21,1.23,18.07-1.86,35.49-7.44,52.6-8.93,27.39-20.61,53.84-28,81.76-.11.41-.58.73-.89,1.09-2.37.46-1.68,1.79-.87,3.14.14,2.93-1.66,5.36-2.12,8.14-.42,2.51-2.49,1.62-4,1.77-21.93,2.21-43.06-2.38-63.9-8.18a241.63,241.63,0,0,1-67.52-30.28c-2.77-1.81-5.64-3.54-7.75-6.18a26.08,26.08,0,0,1,.1-8.41q9.82-35.31,19.66-70.63c4.48-16,9.21-31.94,15.83-47.26,4.86-11.27,12.29-19.57,24.39-23.08,3.66-1.06,6.6-3.66,10.79-4,2.72-.2,3.57-4,4.48-6.66,2.09-6.11,3-12.59,5.79-18.48C201.3,104.16,200.92,103,200.74,101.88Z" transform="translate(-0.9 -0.9)"/><path class="cls-21" d="M244,85c15.89,2.3,31.35,5.89,44.6,15.67,1.64,1.21,4,.52,5.23,2.31a2.56,2.56,0,0,1-2.62.3c.59.63,2.65-.21,1.81,1.82.61-.27.49-1.13,1.11-1.4a21,21,0,0,0,5.47,7c3.39,3.13,2.93,5.14-1.4,6.73a22.77,22.77,0,0,1-9.38,1c-25.65-1.69-49.17-9.49-70-24.76a48,48,0,0,1-4.37-3.82c-1.3-1.21-3.68-2.19-3.25-4s2.9-1.56,4.58-2c7.18.47,14.36-.89,21.54,0,2.05.14,4.17-.2,6,1-.14.67-.92.45-1.23.87A1.85,1.85,0,0,0,244,85Z" transform="translate(-0.9 -0.9)"/><path class="cls-22" d="M237.28,83.83c-3.69,1-8.09-1.42-11.2,2.42a1.08,1.08,0,0,1-1.74,0c-2.13-3.56-5.76-1.55-8.6-2.4A53.87,53.87,0,0,1,237.28,83.83Z" transform="translate(-0.9 -0.9)"/><path class="cls-23" d="M118.94,274.89c.14,2.8,2.09,5.63-.1,8.41C114.26,280.44,118.72,277.69,118.94,274.89Z" transform="translate(-0.9 -0.9)"/><path class="cls-24" d="M200.74,101.88a1.81,1.81,0,0,1,.89,2.69c-.41.8-1,1.09-1.75.24A3.66,3.66,0,0,1,200.74,101.88Z" transform="translate(-0.9 -0.9)"/><path class="cls-25" d="M244,85c-.78,3.43-2.57.64-4,.25l3.31-.43A.47.47,0,0,1,244,85Z" transform="translate(-0.9 -0.9)"/><path class="cls-26" d="M294.13,103.73c-1.2,3.87-2-1.71-3.15.14.79-1.33,1.92-.62,2.85-.86A.52.52,0,0,1,294.13,103.73Z" transform="translate(-0.9 -0.9)"/><path class="cls-27" d="M264.12,318c-1.61-1.33-1.57-2.88-.16-4.16.67-.61.91.42,1,1C263.89,315.71,264.41,317,264.12,318Z" transform="translate(-0.9 -0.9)"/><path class="cls-28" d="M69.34,301.16c4.26,0,7,0,9.84,0,1.77,0,2.68.94,2.85,2.73a2.65,2.65,0,0,1-2,3,12.85,12.85,0,0,1-7.3.81C69.09,306.85,72.22,303.19,69.34,301.16Z" transform="translate(-0.9 -0.9)"/><path class="cls-26" d="M63.82,305c.51,2.16-.66,1.62-1.8,1.12-1.49-1.41-3.58.07-5.12-1.06a8.93,8.93,0,0,1-7.45-3.46c0-.06,0-.29.12-.37A1.49,1.49,0,0,1,50,301a7.58,7.58,0,0,1,7,.5c1.66,1.07,2.59,0,3.62-1C64.52,300,63,303.3,63.82,305Z" transform="translate(-0.9 -0.9)"/><path class="cls-29" d="M60,301c.27.9,2,1.07,1.4,2.29-.4.9-1.35.51-2.15.32-3.12-.74-5.64-3.57-9.24-2.62,3.2-1.77,6.6-1.21,10-.88.35.19.47.39.35.59S60.12,301,60,301Z" transform="translate(-0.9 -0.9)"/><path class="cls-30" d="M60,301v-.89l4-.08a1.45,1.45,0,0,1,.12,2l-.31,3C62.49,303.71,63.39,300.3,60,301Z" transform="translate(-0.9 -0.9)"/><path class="cls-31" d="M64.13,302,64,300c1-1.08,1.57-.13,2.24.42Z" transform="translate(-0.9 -0.9)"/><path class="cls-30" d="M56.9,305c1.75.12,3.7-.73,5.12,1.06A6.81,6.81,0,0,1,56.9,305Z" transform="translate(-0.9 -0.9)"/><path class="cls-32" d="M67.24,271.07c3.85-.83,7.7-1.71,11.57-2.49,1.49-.3,4-1.54,4.29.15.35,2.35,2.14,5.43-1.34,7.52s-6.84,3.91-10.79,4.66a1.89,1.89,0,0,1-1.39-1.34c.6-3-1.27-4.85-3-6.78C66.41,272.07,66.45,271.42,67.24,271.07Z" transform="translate(-0.9 -0.9)"/><path class="cls-33" d="M54,275.11a20,20,0,0,1,6.79-2.31c1-.34,1.89-.44,2.52.63,0,2.39,1.36,4.54,1.17,7-.83,1.49-2.54,1.34-3.8,2a5.46,5.46,0,0,1-3-.33A3.78,3.78,0,0,1,54,280.93,4.83,4.83,0,0,1,54,275.11Z" transform="translate(-0.9 -0.9)"/><path class="cls-34" d="M62.94,273.88c-.43-.95-1.4-.8-2.15-1.08a15,15,0,0,1,6.45-1.73c0,.57.06,1.15.08,1.72A3.19,3.19,0,0,1,62.94,273.88Z" transform="translate(-0.9 -0.9)"/><path class="cls-35" d="M70.15,279.78l.82,1.13c-1.24.7-2.49,1.41-4,1-.9-.64-1.86-1.27-.58-2.44A3.25,3.25,0,0,1,70.15,279.78Z" transform="translate(-0.9 -0.9)"/><path class="cls-26" d="M66,280.05l1,1.87-3.57.22c-.83.28-1.67.59-2.34-.32.72-1.11,2.54-.58,3-2A1.44,1.44,0,0,1,66,280.05Z" transform="translate(-0.9 -0.9)"/><path class="cls-13" d="M64,290.06a4.67,4.67,0,0,1-6,0Z" transform="translate(-0.9 -0.9)"/><path class="cls-36" d="M52.93,280.15c-1.81-1.44-2.83-2.9,0-4.38A4,4,0,0,1,52.93,280.15Z" transform="translate(-0.9 -0.9)"/><path class="cls-37" d="M52.93,280.15c0-1.46,0-2.92,0-4.38l1.11-.66v5.82Z" transform="translate(-0.9 -0.9)"/><path class="cls-37" d="M61.05,281.82l2.34.32a6.45,6.45,0,0,1-5.67,0Z" transform="translate(-0.9 -0.9)"/><path d="M235,187.85c5.61-1.42,10.88-4,16.66-4.88,15-2.36,24.08,3.52,28.45,18.11,6.1,20.34.73,38.15-11.94,54.18a147.4,147.4,0,0,1-50.93,41.39c-7,3.42-12.63,8.42-19.1,12.39-14.68,9-24-2.5-24.11-15.07,2.37-2.29,5.06-2.53,8-1.2,2.23,1.34,3.31,3.67,4.78,5.66,1.05,1.42,2.41,2.16,3.78.83,7.7-7.46,17.77-11,26.86-16.08,15.85-8.85,28.55-21.07,40.17-34.67a37.35,37.35,0,0,0,10.16-17.13,25.77,25.77,0,0,1,2.29-7.12c1.11-4.47.77-9,.2-13.45-.32-.92-.65-1.83-1-2.75-1.19-6.11-3.57-11.39-9.84-13.91-1.86-1.31-3.8-.83-5.74-.24-7.4,1.63-14,5.29-20.9,8.18-1.92.24-3.62,1.41-5.71,1.3a7.36,7.36,0,0,1,4.59,2.27c1.58,2.69,3.53,5.2,3.91,8.44-.35,2.14-.2,4.33-.54,6.48a9.84,9.84,0,0,1-1,2.58c-1.06,1.83-.12,2.68,1.57,3.15,5.45,1.24,10.82,2.64,14.61,7.23,1.39,2.82,3.61,5.39,2.7,8.91-1.11,4.36-2.55,8.61-4,12.86-.73,2.21-1.5,4.45-3.91,5.51a4.94,4.94,0,0,1-5.34-1.36,5.28,5.28,0,0,1-.85-2.23c-.41-4,1-7.74,2-11.53,1.09-4.06.13-7.13-4.18-8.55a62.18,62.18,0,0,0-7.79-2.43c-4.89-3.18-6.28-7.81-5.39-13.31,1.45-8.89,1.47-8.89-7.2-10.92-.8-.19-1.62-.3-2.42-.52-1.16-.13-2.11-1.59-3.46-.53a66.22,66.22,0,0,0-2.64,7.55c-2.45,7.4-8.2,10.31-15.58,8a23.12,23.12,0,0,1-2.84-1c-3.55-1.63-5.52-.75-6.43,3.26-.75,3.34-1.54,7.16-6.45,6.76-3.58-.9-3.9-3.73-3.77-6.66.21-4.71,1.94-9.1,3.57-13.41,1.27-3.38,4.58-3.47,7.68-2.65,2.57.67,4.9,2,7.39,2.91,2,.58,3.78,2.05,6,1a6.43,6.43,0,0,0,.86-2.2c.1-.43.22-.84.35-1.26,1.62-6,5.62-10.33,10.17-14.25,2.12.08,4,1.12,6.1,1.39.36.56.74-.61.38,0-.12.2-.22.08-.46-.16-1.21-1.23-1.18-3-1.83-4.41a32,32,0,0,0-12.53-15.66c-4.54-3-8.83-2.28-12.94.53-10.43,7.15-17.78,16.82-22.69,28.41a41.13,41.13,0,0,0-1.79,8,42.09,42.09,0,0,0-1.6,14.16c-.05,1.31-.06,2.62-.05,3.92,0,2.52-.33,5.05.32,7.54a12,12,0,0,1,.37,1.46c1.32,9.89,6,18.56,10,27.49,2.55,5.75,6.26,11,7.73,17.2-.35,3.45-1.9,5.56-5.72,5.12-3.78-.89-5.69-3.78-7.38-6.89-8.21-15.05-15.36-30.5-17.51-47.77-.73-.57-.66-1.17-.08-1.8a166.23,166.23,0,0,1,2-24c-.31-.22-.39-.4-.25-.53a.6.6,0,0,1,.4-.15,74.93,74.93,0,0,1,22.76-36.69c12.77-11.32,28-13.7,39.87.48,3.32,4,6.49,8,8.62,12.75,2.37,5.31,2.89,5.42,7.93,2.33A4.83,4.83,0,0,1,235,187.85Z" transform="translate(-0.9 -0.9)"/><path class="cls-38" d="M268.89,163.58c-4.14-1.13-8.51-2.15-12.77-3.52-18.52-6-36.75-12.72-53.46-22.93-2-1.21-5.79-2.61-4.2-5.16,1.85-3,4.68.17,6.79,1.37,19.17,10.88,39.66,18.48,60.78,24.5a28.53,28.53,0,0,1,4.26,1.34c1.14.52,2.73,1.18,2.29,2.8S270.37,163,268.89,163.58Z" transform="translate(-0.9 -0.9)"/><path class="cls-39" d="M174,292.45c3.23-.29,4.3-2.45,4.57-5.3,4.43.46,3.64,3.69,3.48,6.58-2.73-1.31-5.42-1.52-8.05.24Z" transform="translate(-0.9 -0.9)"/><path class="cls-40" d="M235,187.85a10.05,10.05,0,0,1-4.63,2.34C230.49,187.56,231.63,187,235,187.85Z" transform="translate(-0.9 -0.9)"/><path class="cls-41" d="M289.87,132.6a2.81,2.81,0,0,1,3.29-.17A2.88,2.88,0,0,1,289.87,132.6Z" transform="translate(-0.9 -0.9)"/><path class="cls-26" d="M151.16,211.32a.49.49,0,0,1-.15.68c-1.48-1.06-.91-2.47-.9-4.05C151.62,209,150.68,210.32,151.16,211.32Z" transform="translate(-0.9 -0.9)"/><path class="cls-42" d="M149,236c0,.6.05,1.2.08,1.8-.12.75-.23,1.5-.43,2.82C147.74,238.55,147.66,237.18,149,236Z" transform="translate(-0.9 -0.9)"/><path class="cls-43" d="M66,280.05l-1.91-.27c-.43-2-3.25-3.46-1.13-5.9l4.38-1.09c3.52,1.29,4.81,3.48,2.83,7Z" transform="translate(-0.9 -0.9)"/><path class="cls-44" d="M182.05,293.73c-1.49-2-.28-5.46-3.48-6.58-4.48-9.75-9.07-19.44-13.38-29.27-2.19-5-4.25-10.09-4.34-15.7,1-.94.58-2.16.68-3.28-.18,1.1.26,2.33-.68,3.28-1.19-2.64-1.06-5.41-.83-8.18a2.81,2.81,0,0,0,0-4,34.65,34.65,0,0,1,1.89-14.94c2.36-2.26,1-5.48,2.1-8.07a58.88,58.88,0,0,1,24.48-30c5.29-3.33,9.48-2.8,14.79,1.81,4.78,4.15,8.84,9,10.73,15.24-.26,3.3-1.72,5-5.27,4.11C205.39,203,200.63,207,199,213c-.84-.83-1.83.26-2.7-.19.87.5,1.84-.45,2.7.2l-.47,2.9c-2.16,1.18-4.18-.92-6.31-.28-2.65-1-5.3-1.88-7.93-2.84-4.7-1.7-6-1-7.24,3.67-.83,3-2.29,5.92-2.87,9s-1.68,6.47,2.71,7.87a1.46,1.46,0,0,1,.25,1.9c-3,3-1.1,5,1.53,6.54,2.8,1.65,5.94,2.71,8.27,5.13a11,11,0,0,1,2.31,7.95,14,14,0,0,1-1,4.79,15.6,15.6,0,0,0,.62,13.73c2.55,4.39,5.16,5.3,11.37,3.91a9.83,9.83,0,0,1,3,.23c8.13,1.31,11.18-.39,14.41-8.05.51-1.22.87-2.5,1.35-3.74,2.75-7.09,3.93-7.9,11.34-6,3.52.9,5.69-.05,7.39-3a2.37,2.37,0,0,1,2.13-.26c.09.71.19,1.43.28,2.14.89,2.85,3,1.84,4.86,1.5,2.92-4,3.59-8.76,5-13.29A47.1,47.1,0,0,1,252,242c1-1.43.19-3.13.68-4.64.88-2.71-1.06-2.85-2.88-3.08a31.71,31.71,0,0,0-15-6.79c-1.42-1.29-3.34-2.37-2-4.8.39-.56.77-1.12,1.16-1.67,1.86-2.34-.55-5.17.87-7.57-1.67-2.26-3.41-4.49-4-7.36-1.23-2-.26-3.51,1-5,5.31-2.39,10.59-4.87,16-7.13,1.76-.74,3.64-1.53,5.69-1.09A10.42,10.42,0,0,1,260,193c6.64,2.79,10,7.78,10,14.81a10.71,10.71,0,0,1,.67,3.58c-.69,3.56-2.29,7.12.62,10.57.58.69.29,2.22-.27,3.29-.73,2.24-1.45,4.49-2.18,6.73-4.16,2.92-10.41,13.05-10.58,17.16a135.09,135.09,0,0,1-26.65,26.27c-10.43,7.58-21.94,13.32-33.23,19.42a20.17,20.17,0,0,0-5.37,3.95c-4,4.23-4.93,4.17-8-.51C184.11,296.74,183.07,295.24,182.05,293.73Z" transform="translate(-0.9 -0.9)"/><path class="cls-45" d="M176.94,234.8c0-.49,0-1,0-1.47,3.53-.2,3.94-3,4.64-5.57,1.94-7,1.92-7,8.91-4.71,1.26.4,2.52.82,3.79,1.19a9.42,9.42,0,0,0,11.94-6.48A78.92,78.92,0,0,1,210,207.18a1.38,1.38,0,0,1,.51.78c.15,1.22.11,1.17,1.34.6.4-.19.92.11,1.33.37,4.31-.43,8,1.86,12,2.75,2.69.6,1.14,2.64.88,4-.86,4.64-3,9.15-.31,14a13,13,0,0,0,3.26,4.19,15.85,15.85,0,0,0,7.95,2.17c5.27,1.49,6.89,4.29,5.32,9.41a51.86,51.86,0,0,0-2.46,11.06l-1.81.61c-5.82-2.75-12.05-.95-18.06-1.63-2.07-.23-2.87,1.39-3.67,2.85-1.69,3.08-2.69,6.44-4,9.68-1.78,4.45-4.38,5.8-9.06,5a34.45,34.45,0,0,1-4.75-1.5c-6.88-2.29-7.49-3.59-5.07-10.61a36.47,36.47,0,0,0,1.21-4.32c1.89-8.56.66-11.08-6.88-15.82C184.25,238.55,180,237.83,176.94,234.8Z" transform="translate(-0.9 -0.9)"/><path class="cls-44" d="M258.32,249.14c-1.21-.22-2.64-.59-1.72-2.15q4.25-7.19,8.86-14.13a2.33,2.33,0,0,1,3.44-.88C266.88,238.63,263.81,244.63,258.32,249.14Z" transform="translate(-0.9 -0.9)"/><path class="cls-44" d="M271.08,225.25c-.15-1.11.07-2.87-.52-3.21-5.55-3.14-.85-6.7-.57-10-.55-.37.92.05.31.32s-.3.87,0,.3c.54-.89-.3-2.15.79-2.89A26.48,26.48,0,0,1,271.08,225.25Z" transform="translate(-0.9 -0.9)"/><path class="cls-44" d="M249.84,234.27c1.24-1.67,2.77-1.64,4.2-.46s.94,2.67-.18,3.82-.29,3.3-1.82,4.36C253.75,238.72,249.33,237.2,249.84,234.27Z" transform="translate(-0.9 -0.9)"/><path class="cls-46" d="M208.72,198.11c2.81,0,4-2.1,5.27-4.11,1,1.88,2.4,4.59.82,5.72C213.42,200.71,210.47,199.84,208.72,198.11Z" transform="translate(-0.9 -0.9)"/><path class="cls-44" d="M232,201.1l-1,5-4.7-2.74Z" transform="translate(-0.9 -0.9)"/><path class="cls-47" d="M237,236.05c-3.06.79-6,1.06-7.95-2.17A19.23,19.23,0,0,1,237,236.05Z" transform="translate(-0.9 -0.9)"/><path class="cls-48" d="M164,207c-.26,2.8,2.31,6.34-2.1,8.07A15.53,15.53,0,0,1,164,207Z" transform="translate(-0.9 -0.9)"/><path class="cls-44" d="M234.93,213.44c.27,2,0,3.94,1.31,6,1.77,2.89-.49,2.3-2.18,1.55C233.12,218.35,233.93,215.88,234.93,213.44Z" transform="translate(-0.9 -0.9)"/><path class="cls-49" d="M192.25,215.65a8.22,8.22,0,0,1,6.31.28C196.33,218.72,194.34,216.06,192.25,215.65Z" transform="translate(-0.9 -0.9)"/><path class="cls-50" d="M213.19,208.93c-1.62-.2-1.89,1.44-3.18,2.43v-4.18C211.64,206.73,212.53,207.62,213.19,208.93Z" transform="translate(-0.9 -0.9)"/><path class="cls-51" d="M271.13,209.73c-.09,1.41-.19,2.83-.29,4.3-1.22-.39-.66-1.35-.85-2,0-1.4.05-2.79.07-4.19A1.38,1.38,0,0,1,271.13,209.73Z" transform="translate(-0.9 -0.9)"/><path class="cls-52" d="M245,260.15c-2.1,1.05-4.23,2.18-4.86-1.5C241.41,260.23,243.22,260.08,245,260.15Z" transform="translate(-0.9 -0.9)"/><path class="cls-44" d="M232.9,222.68c-.39,2,1.31,3.2,2,4.8C231.36,227.06,231.53,225.11,232.9,222.68Z" transform="translate(-0.9 -0.9)"/><path class="cls-53" d="M260,193l-6.37-.12C255.79,192,257.92,191.4,260,193Z" transform="translate(-0.9 -0.9)"/><path class="cls-54" d="M160,230c2.4,1.32,2.42,2.65,0,4A6.74,6.74,0,0,1,160,230Z" transform="translate(-0.9 -0.9)"/><path class="cls-11" d="M176.94,234.8c7.84,1.52,13.87,6.18,19.49,11.45,1.28,1.2,1.27,2.88.82,4.65-1.14,4.49-1.49,9.2-3.74,13.38-1.39,2.58-.27,4.12,2.11,5a69.83,69.83,0,0,0,7.5,2.57c4.36,1.12,7.24-.33,8.45-5a52.7,52.7,0,0,1,3.21-8.3c1.45-3.2,2.55-7.34,7.54-3.7,1,.74,2.16-.56,3.25-.73,4.52-.67,9-.8,12.46,2.94-1.7,5.14-3.1,6.1-9.66,3.36-4.4-1.84-5.5-.1-7.24,3.17-2.13,4-3,8.46-6,12.36-3.42,4.46-6.68,3.88-10.77,3-1.44-.32-2.87-.73-4.3-1.1-4.58.37-9,.33-11.91-4.15-5.23-6.19-1.5-12.36,0-18.53.11-2.95,2.27-6.47-2.21-8.18-3.22-1.73-6.45-3.46-9.66-5.2a4.8,4.8,0,0,1-2.49-4.57C173.8,235.11,175.56,235.2,176.94,234.8Z" transform="translate(-0.9 -0.9)"/><path class="cls-55" d="M188.12,273.76c3.34,3.19,7.89,2.91,11.91,4.15C194.79,280.62,189.09,278.63,188.12,273.76Z" transform="translate(-0.9 -0.9)"/><path class="cls-44" d="M266.06,199.62c1.86,3.09,2.66,5.23,2.73,7.94C265.94,205.37,265.94,205.37,266.06,199.62Z" transform="translate(-0.9 -0.9)"/><path class="cls-56" d="M186,247.05c5,.56,5,.56,2.21,8.18C188.05,252.34,187.82,249.47,186,247.05Z" transform="translate(-0.9 -0.9)"/><path class="cls-44" d="M233.93,202.35l6.1-3.1C238.92,201.47,237.77,203.62,233.93,202.35Z" transform="translate(-0.9 -0.9)"/><path class="cls-57" d="M199,213c-1.61.72-3.23,1.39-5.43.53,1.9-1.47,3.5-2.34,5.43-.54Z" transform="translate(-0.9 -0.9)"/><path class="cls-44" d="M248.88,229.44c-.07.5-.19,1.13-.84.78a3,3,0,0,1-1.26-1.37c-.23-.62.38-.78.9-.71A1.32,1.32,0,0,1,248.88,229.44Z" transform="translate(-0.9 -0.9)"/><path class="cls-58" d="M160.85,242.18c.13-1.41.26-2.81.44-4.67,1,2,1,3.43-.44,4.67Z" transform="translate(-0.9 -0.9)"/></g></g></svg>